<?xml version="1.0" encoding="UTF-8" standalone="no"?>
<!-- Generator: Adobe Illustrator 23.0.6, SVG Export Plug-In . SVG Version: 6.00 Build 0)  -->

<svg
   xmlns:dc="http://purl.org/dc/elements/1.1/"
   xmlns:cc="http://creativecommons.org/ns#"
   xmlns:rdf="http://www.w3.org/1999/02/22-rdf-syntax-ns#"
   xmlns:svg="http://www.w3.org/2000/svg"
   xmlns="http://www.w3.org/2000/svg"
   xmlns:sodipodi="http://sodipodi.sourceforge.net/DTD/sodipodi-0.dtd"
   xmlns:inkscape="http://www.inkscape.org/namespaces/inkscape"
   version="1.1"
   id="Vrstva_2"
   x="0px"
   y="0px"
   viewBox="0 0 314.14998 73.699996"
   xml:space="preserve"
   sodipodi:docname="liane-logo-crop.svg"
   inkscape:version="0.92.1 r15371"
   width="314.14999"
   height="73.699997"><metadata
     id="metadata21"><rdf:RDF><cc:Work
         rdf:about=""><dc:format>image/svg+xml</dc:format><dc:type
           rdf:resource="http://purl.org/dc/dcmitype/StillImage" /><dc:title></dc:title></cc:Work></rdf:RDF></metadata><defs
     id="defs19" /><sodipodi:namedview
     pagecolor="#ffffff"
     bordercolor="#666666"
     borderopacity="1"
     objecttolerance="10"
     gridtolerance="10"
     guidetolerance="10"
     inkscape:pageopacity="0"
     inkscape:pageshadow="2"
     inkscape:window-width="2560"
     inkscape:window-height="1377"
     id="namedview17"
     showgrid="false"
     inkscape:zoom="1.5857387"
     inkscape:cx="118.08803"
     inkscape:cy="-152.08788"
     inkscape:window-x="-8"
     inkscape:window-y="-8"
     inkscape:window-maximized="1"
     inkscape:current-layer="Vrstva_2" /><style
     type="text/css"
     id="style2">
	.st0{fill:none;stroke:#000000;stroke-width:3;}
</style><g
     id="g4506"
     transform="translate(-148.77,-346.4)"><path
       id="path4"
       d="m 203.93,378.59 c -11.05,0 -20,8.95 -20,20 0,11.05 8.95,20 20,20 11.05,0 20,-8.95 20,-20 v -15.17 c 0,-2.67 -2.16,-4.83 -4.83,-4.83 -2.67,0 -4.83,2.16 -4.83,4.83 v 15.17"
       class="st0"
       inkscape:connector-curvature="0"
       style="fill:none;stroke:#000000;stroke-width:3" /><path
       id="path6"
       d="m 177.01,402.93 v -19.5 c 0,-2.67 -2.16,-4.83 -4.83,-4.83 -2.67,0 -4.83,2.16 -4.83,4.83 v 15.17 4.33 c 0,8.65 7.02,15.67 15.67,15.67 h 21.42"
       class="st0"
       inkscape:connector-curvature="0"
       style="fill:none;stroke:#000000;stroke-width:3" /><path
       id="path8"
       d="m 159.93,402.93 v -50.2 c 0,-2.67 -2.16,-4.83 -4.83,-4.83 -2.67,0 -4.83,2.16 -4.83,4.83 v 45.87 4.33 c 0,8.65 7.01,15.67 15.67,15.67 h 16.58"
       class="st0"
       inkscape:connector-curvature="0"
       style="fill:none;stroke:#000000;stroke-width:3" /><path
       id="path10"
       d="m 233.59,398.59 v 15.17 c 0,2.67 -2.16,4.83 -4.83,4.83 -2.67,0 -4.83,-2.16 -4.83,-4.83 v -15.17 c 0,-11.05 8.95,-20 20,-20 11.05,0 20,8.95 20,20 v 20"
       class="st0"
       inkscape:connector-curvature="0"
       style="fill:none;stroke:#000000;stroke-width:3" /><path
       id="path12"
       d="m 177.01,366.14 c 0,2.67 -2.16,4.83 -4.83,4.83 -2.67,0 -4.83,-2.16 -4.83,-4.83 0,-2.67 2.16,-4.83 4.83,-4.83 2.67,0 4.83,2.16 4.83,4.83 z"
       class="st0"
       inkscape:connector-curvature="0"
       style="fill:none;stroke:#000000;stroke-width:3" /><path
       id="path14"
       d="m 283.93,408.74 c -1.6,0 -3.1,-0.37 -4.45,-1.03 -1.56,-0.77 -2.58,-2.42 -2.58,-4.29 0,-2.67 2.16,-4.83 4.83,-4.83 h 12.03 c 4.19,0 7.58,-3.4 7.58,-7.58 0,-1.73 -0.58,-3.32 -1.55,-4.59 -3.64,-4.77 -9.4,-7.83 -15.87,-7.83 -11.05,0 -20,8.96 -20,20 0,11.05 8.95,20 20,20 h 179"
       class="st0"
       inkscape:connector-curvature="0"
       style="fill:none;stroke:#000000;stroke-width:3" /></g></svg>